<?xml version="1.0" standalone="no"?>
<!DOCTYPE svg PUBLIC "-//W3C//DTD SVG 20010904//EN"
 "http://www.w3.org/TR/2001/REC-SVG-20010904/DTD/svg10.dtd">
<svg version="1.0" xmlns="http://www.w3.org/2000/svg"
 width="600.000000pt" height="600.000000pt" viewBox="0 0 600.000000 600.000000"
 preserveAspectRatio="xMidYMid meet">
<metadata>
Created by potrace 1.14, written by Peter Selinger 2001-2017
</metadata>
<g transform="translate(0.000000,600.000000) scale(0.100000,-0.100000)"
fill="#000000" stroke="none">
<path d="M2845 5720 c-217 -11 -413 -60 -600 -150 -235 -114 -371 -236 -526
-470 -91 -137 -161 -350 -179 -541 -23 -238 -5 -432 55 -606 18 -53 31 -101
28 -106 -5 -9 -31 -7 -129 9 -63 10 -81 -14 -83 -106 -1 -69 21 -174 39 -185
11 -7 71 -115 136 -244 28 -58 60 -115 69 -126 9 -11 14 -15 11 -8 -4 6 -2 14
4 18 5 3 10 -2 11 -12 0 -10 3 -27 5 -38 3 -11 9 -50 14 -88 5 -37 14 -77 20
-88 6 -11 26 -61 45 -112 45 -124 130 -315 146 -327 13 -10 39 -70 39 -90 0
-11 -5 -19 -12 -17 -7 1 -21 -30 -34 -78 -13 -44 -34 -111 -48 -150 -23 -67
-27 -71 -78 -97 -29 -14 -100 -46 -158 -69 -99 -40 -160 -70 -534 -264 -191
-98 -639 -349 -819 -458 -34 -20 -108 -61 -164 -89 l-103 -53 0 -588 0 -588
3000 2 3000 3 0 538 c0 313 -4 538 -9 538 -5 0 -40 29 -78 64 -83 79 -190 143
-768 458 -278 152 -1062 538 -1092 538 -13 0 -17 11 -34 98 -7 35 -18 66 -25
69 -23 9 -16 32 55 183 58 121 171 429 171 465 0 5 7 23 15 38 8 15 17 42 20
60 9 56 14 89 21 136 4 30 14 53 29 66 29 25 66 91 105 190 17 42 39 94 50
114 55 106 62 126 67 216 8 131 -5 141 -145 108 -95 -22 -100 -17 -72 78 38
129 40 142 49 249 9 108 -6 344 -29 445 -39 177 -128 386 -220 510 -55 75
-174 200 -220 231 -19 13 -54 37 -78 54 -61 43 -226 130 -247 130 -10 0 -32 8
-49 19 -28 17 -82 36 -241 84 -43 13 -144 29 -260 41 -16 1 -93 0 -170 -4z
m539 -984 c-1 -9 4 -16 12 -16 8 0 14 -4 14 -9 0 -4 12 -7 28 -4 23 3 24 2 7
-6 -17 -8 -17 -10 -3 -10 9 -1 19 3 22 8 7 11 -18 33 -27 25 -3 -4 -14 -4 -23
0 -13 5 -14 9 -4 21 11 13 16 13 41 -2 16 -10 29 -24 29 -32 0 -8 3 -12 6 -8
7 6 44 -29 44 -42 0 -5 10 -7 23 -3 19 5 20 3 10 -10 -7 -8 -9 -18 -5 -23 4
-4 -3 -3 -15 4 -26 13 -33 14 -33 2 0 -5 9 -13 21 -16 12 -4 18 -13 15 -20 -3
-8 0 -16 7 -19 7 -2 4 -5 -7 -5 -12 -1 -16 4 -13 14 4 8 1 17 -5 21 -7 4 -8 3
-4 -4 4 -7 1 -12 -8 -12 -9 0 -16 8 -16 17 0 9 -3 13 -6 10 -4 -3 -16 -2 -28
4 -14 7 -12 3 6 -11 21 -16 26 -26 19 -38 -4 -9 -6 -24 -4 -32 3 -9 1 -11 -4
-4 -15 19 -41 23 -60 9 -23 -18 -34 -19 -27 -1 7 18 -34 32 -48 18 -8 -8 -4
-9 11 -5 12 3 21 1 21 -6 0 -6 -8 -11 -17 -12 -11 0 -13 -3 -5 -6 6 -2 10 -9
6 -14 -6 -11 -24 -12 -23 -1 4 21 -3 32 -17 32 -14 0 -14 -3 -4 -15 7 -9 10
-19 6 -22 -10 -11 -36 -12 -36 -2 0 5 4 9 10 9 5 0 7 15 5 33 -3 17 -3 26 1
20 3 -7 12 -13 20 -13 9 0 13 4 10 8 -4 8 13 12 64 15 18 1 24 -2 22 -13 -2
-8 0 -11 5 -7 11 11 11 30 0 38 -4 3 -9 15 -10 26 0 13 -6 19 -14 16 -7 -3
-11 -8 -8 -13 2 -4 -6 -12 -18 -18 -32 -15 -68 -22 -61 -11 3 5 11 9 19 9 7 0
15 7 19 15 3 8 1 15 -3 15 -5 0 -11 -5 -13 -11 -3 -8 -10 -6 -20 5 -9 9 -22
16 -28 16 -6 0 -8 5 -4 11 4 8 9 8 17 0 14 -14 30 -14 22 -1 -3 6 4 10 17 11
13 0 17 3 10 6 -6 2 -10 9 -6 14 3 5 0 9 -5 9 -6 0 -11 -4 -11 -8 0 -4 -15 -8
-32 -9 -18 -1 -27 1 -20 3 6 3 9 10 6 16 -4 6 2 8 16 3 17 -5 20 -4 15 5 -6
10 -1 12 19 8 21 -4 26 -1 26 14 0 12 -4 16 -12 12 -6 -4 -8 -3 -5 4 11 16 42
7 41 -12z m151 -36 c4 -6 11 -8 16 -5 5 4 9 -1 9 -9 0 -20 -19 -21 -26 -1 -4
8 -10 12 -15 9 -5 -3 -9 0 -9 5 0 14 17 14 25 1z m-261 -72 c-5 -8 -2 -9 11
-4 15 5 16 4 5 -9 -8 -10 -17 -12 -23 -6 -9 9 -2 31 9 31 3 0 2 -5 -2 -12z
m199 -155 c5 -9 3 -13 -8 -13 -9 0 -13 -5 -9 -11 4 -8 0 -9 -15 -4 -12 4 -20
2 -19 -3 2 -6 -1 -9 -7 -8 -5 0 -9 4 -8 7 1 4 -7 5 -18 2 -19 -5 -19 -7 6 -23
22 -15 24 -18 10 -24 -9 -3 -26 -6 -37 -6 -28 0 -15 -12 17 -15 14 -2 25 1 25
6 0 5 5 9 12 9 6 0 8 -3 5 -7 -4 -3 -1 -13 5 -22 10 -13 9 -14 -1 -5 -9 9 -19
9 -37 0 -29 -13 -32 -26 -4 -19 11 3 20 0 20 -6 0 -6 7 -11 15 -11 8 0 15 -7
15 -16 0 -11 6 -14 23 -9 12 3 17 3 11 -2 -19 -15 -25 -43 -9 -49 8 -4 15 -10
15 -16 0 -5 -6 -6 -12 -3 -7 4 -4 -1 6 -9 15 -12 22 -13 27 -4 8 12 -7 32 -31
40 -10 3 -8 6 8 10 12 4 22 2 22 -4 0 -16 32 -37 57 -38 13 0 28 -9 35 -20 7
-11 17 -20 22 -20 5 0 1 9 -9 20 -10 11 -14 20 -8 20 5 0 19 -9 31 -20 12 -11
30 -20 41 -20 11 0 23 -4 26 -10 3 -5 15 -10 26 -10 18 0 19 -2 4 -30 -14 -28
-18 -29 -60 -23 -29 4 -50 1 -60 -7 -8 -7 -35 -12 -60 -12 -25 1 -45 -3 -45
-9 0 -6 -8 -5 -21 2 -15 8 -28 8 -44 1 -15 -7 -26 -7 -33 0 -6 6 -16 6 -28 0
-20 -10 -47 -5 -40 6 2 4 -9 8 -25 9 -16 1 -29 -2 -29 -8 0 -6 4 -8 9 -4 5 3
12 1 16 -5 3 -5 2 -10 -4 -10 -5 0 -17 -3 -26 -6 -10 -4 -15 -2 -13 6 2 7 -3
15 -11 18 -10 3 -12 0 -7 -13 5 -13 2 -16 -10 -11 -8 3 -18 6 -20 6 -2 0 -4 5
-4 11 0 5 5 7 10 4 15 -9 12 4 -5 21 -18 19 -20 38 -2 28 9 -5 9 -4 0 6 -10
11 -9 18 5 34 12 14 13 17 2 11 -12 -7 -13 -6 -3 7 7 8 10 17 7 21 -3 3 -1 14
6 24 8 13 10 13 7 2 -3 -9 -1 -22 4 -30 6 -10 9 -7 9 13 0 14 6 29 13 31 7 3
4 6 -6 6 -32 2 -12 25 34 41 69 24 76 29 44 26 -17 -2 -42 -9 -55 -16 -22 -12
-24 -11 -13 2 7 8 10 18 7 21 -4 4 3 5 14 2 26 -5 50 20 27 29 -8 3 -15 11
-14 18 0 10 2 10 6 1 2 -7 12 -13 20 -13 8 0 13 6 10 13 -3 8 3 14 16 14 29 3
47 23 19 23 -12 0 -22 5 -22 11 0 8 -6 7 -17 -2 -16 -13 -17 -12 -4 3 7 10 18
15 24 11 6 -4 8 2 4 17 -12 46 57 79 84 39 8 -11 9 -10 7 6 -3 13 -11 19 -23
18 -20 -1 -20 -1 0 13 19 14 21 13 30 -18 6 -18 14 -39 18 -45z m23 32 c-8 -8
-18 -15 -22 -15 -3 0 -1 7 6 15 7 8 17 15 22 15 5 0 3 -7 -6 -15z m-162 -39
c-3 -8 -13 -17 -22 -21 -13 -5 -13 -2 3 15 21 24 26 25 19 6z m111 -56 c3 -5
1 -10 -4 -10 -6 0 -11 5 -11 10 0 6 2 10 4 10 3 0 8 -4 11 -10z m-498 -220
c-6 -29 7 -51 16 -28 3 7 3 -5 1 -26 -5 -49 -8 -52 -34 -33 -17 12 -18 16 -6
20 8 3 17 1 20 -6 2 -7 5 -4 5 7 1 12 -4 16 -14 12 -11 -4 -15 2 -15 25 0 18
4 28 10 24 6 -3 10 3 10 14 0 12 3 21 6 21 4 0 4 -13 1 -30z m-37 -31 c0 -11
-4 -18 -10 -14 -5 3 -7 12 -3 20 7 21 13 19 13 -6z m91 -3 c-8 -10 -9 -16 -1
-21 5 -3 10 -14 10 -23 -1 -12 -5 -10 -15 8 -12 23 -6 50 12 50 3 0 0 -6 -6
-14z m-551 -60 c0 -3 -4 -8 -10 -11 -5 -3 -10 -1 -10 4 0 6 5 11 10 11 6 0 10
-2 10 -4z m1230 -307 c0 -20 -15 -26 -25 -9 -9 15 3 43 15 35 5 -3 10 -15 10
-26z m-573 0 c-4 -14 -1 -19 7 -16 8 3 12 -3 11 -16 -2 -21 -31 -38 -52 -30
-6 3 -14 -4 -16 -14 -4 -12 -5 -10 -5 7 1 14 -2 33 -7 43 -10 23 11 47 42 47
21 0 24 -4 20 -21z m691 -22 c12 -11 22 -26 22 -34 0 -18 -67 -60 -110 -68
l-35 -7 27 28 c16 17 30 46 34 71 7 46 19 48 62 10z m-1354 17 c23 -9 20 -34
-4 -34 -13 0 -20 7 -20 20 0 22 1 23 24 14z m1136 -17 c0 -16 -5 -18 -26 -13
-28 7 -28 9 -12 -65 2 -10 -5 -13 -27 -11 -40 5 -55 19 -55 53 0 40 21 56 74
56 39 0 46 -3 46 -20z m-1044 -10 c21 -19 26 -29 20 -50 -9 -39 -33 -57 -74
-57 -20 0 -32 4 -27 8 19 13 32 57 28 90 -6 40 13 43 53 9z m-186 9 c0 -2 -3
-11 -6 -20 -9 -23 -24 -20 -24 4 0 11 7 20 15 20 8 0 15 -2 15 -4z m-96 -56
c7 0 16 -9 19 -20 7 -26 -9 -25 -52 1 -32 20 -33 20 -15 40 l18 20 8 -20 c4
-12 14 -21 22 -21z m843 -6 c-3 -3 -12 -4 -19 -1 -8 3 -5 6 6 6 11 1 17 -2 13
-5z m298 -4 c3 -6 -1 -7 -9 -4 -18 7 -21 14 -7 14 6 0 13 -4 16 -10z m-305
-44 c0 -2 -7 -7 -16 -10 -8 -3 -12 -2 -9 4 6 10 25 14 25 6z m630 -15 c0 -6
-4 -12 -9 -15 -13 -8 -42 4 -35 15 7 12 44 12 44 0z m35 -1 c3 -6 -1 -7 -9 -4
-18 7 -21 14 -7 14 6 0 13 -4 16 -10z m-661 -15 c3 -8 1 -15 -4 -15 -6 0 -10
7 -10 15 0 8 2 15 4 15 2 0 6 -7 10 -15z m371 -145 c3 -6 -1 -7 -9 -4 -18 7
-21 14 -7 14 6 0 13 -4 16 -10z m-307 -36 c-4 -3 -16 -3 -28 1 -17 5 -19 9 -9
21 11 13 14 13 28 0 8 -9 12 -18 9 -22z m32 16 c0 -5 -2 -10 -4 -10 -3 0 -8 5
-11 10 -3 6 -1 10 4 10 6 0 11 -4 11 -10z m260 6 c0 -3 -4 -8 -10 -11 -5 -3
-10 -1 -10 4 0 6 5 11 10 11 6 0 10 -2 10 -4z m37 -42 c0 -20 -14 -17 -26 5
-9 16 -8 18 8 14 9 -2 18 -11 18 -19z m33 -15 c0 -5 -4 -9 -10 -9 -5 0 -10 7
-10 16 0 8 5 12 10 9 6 -3 10 -10 10 -16z m-448 -21 c-7 -7 -12 -8 -12 -2 0 6
3 14 7 17 3 4 9 5 12 2 2 -3 -1 -11 -7 -17z m114 7 c17 -13 17 -14 2 -15 -10
0 -18 6 -19 13 0 10 -2 10 -6 0 -2 -7 -12 -13 -20 -13 -13 0 -13 3 -3 15 15
19 21 19 46 0z m432 -12 c23 -22 7 -26 -24 -6 -16 10 -25 12 -21 6 6 -9 1 -13
-13 -13 -18 0 -19 3 -10 20 12 23 42 20 68 -7z m243 -5 c-3 -21 -6 -26 -9 -15
-3 17 3 47 11 47 2 0 1 -15 -2 -32z m-411 12 c0 -5 -2 -10 -4 -10 -3 0 -8 5
-11 10 -3 6 -1 10 4 10 6 0 11 -4 11 -10z m264 2 c2 -4 -4 -8 -14 -8 -10 0
-16 4 -14 8 3 4 9 8 14 8 5 0 11 -4 14 -8z m71 -2 c3 -6 -4 -10 -17 -10 -18 0
-20 2 -8 10 19 12 18 12 25 0z m-685 -10 c0 -5 -5 -10 -11 -10 -5 0 -7 5 -4
10 3 6 8 10 11 10 2 0 4 -4 4 -10z m716 -29 c-11 -10 -20 -11 -43 -2 -16 6
-19 10 -7 7 13 -2 27 4 35 15 10 14 15 15 21 6 4 -6 1 -18 -6 -26z m-654 17
c20 2 28 -2 28 -14 0 -13 -6 -15 -32 -10 -31 6 -31 6 -13 -9 15 -11 16 -15 5
-14 -30 3 -40 -1 -40 -16 0 -19 3 -19 50 5 35 18 40 18 40 5 0 -9 5 -13 10
-10 6 3 17 -1 26 -9 10 -10 11 -16 3 -16 -9 0 -9 -3 1 -15 6 -8 9 -24 5 -37
-4 -16 -3 -19 3 -10 8 12 15 11 40 -2 17 -9 34 -20 37 -26 3 -5 17 -10 31 -10
14 0 22 -4 19 -10 -3 -5 -1 -10 4 -10 6 0 11 -7 11 -16 0 -8 -4 -12 -10 -9 -5
3 -19 1 -31 -6 -19 -10 -25 -8 -41 14 -26 36 -67 60 -81 49 -25 -20 -69 -23
-86 -7 -9 9 -29 26 -45 39 -27 22 -28 26 -21 76 5 39 12 54 26 57 10 3 16 10
12 16 -4 6 -1 7 8 2 7 -5 26 -8 41 -7z m313 -48 c-3 -6 -1 -10 4 -10 15 0 14
23 -1 40 -7 8 -4 7 8 -3 29 -24 41 -21 18 6 -19 22 -19 22 2 4 11 -9 23 -14
27 -11 3 3 14 3 25 0 21 -7 36 -42 21 -52 -5 -3 -9 -10 -9 -16 0 -7 4 -7 13 1
8 6 17 8 20 4 4 -3 7 -1 7 5 0 7 5 12 10 12 6 0 10 -8 10 -17 1 -17 1 -17 10
-1 11 18 3 48 -12 48 -5 0 -6 -4 -3 -10 3 -5 -3 -10 -14 -10 -12 0 -21 5 -21
11 0 5 5 7 10 4 6 -3 10 -2 10 4 0 5 -8 14 -17 20 -10 5 -14 13 -10 17 5 5 11
4 15 -2 4 -6 30 -10 57 -10 42 1 50 -2 49 -16 -1 -10 3 -15 8 -12 5 3 19 -4
30 -16 11 -12 27 -19 35 -16 8 3 11 1 8 -4 -3 -6 -1 -10 4 -10 6 0 10 -11 9
-24 -1 -15 -7 -22 -15 -19 -8 3 -11 13 -8 24 5 14 1 19 -13 19 -11 0 -20 -6
-19 -12 1 -34 -5 -46 -25 -53 -14 -4 -18 -8 -11 -11 17 -7 -37 -60 -56 -56 -8
2 -21 11 -28 20 -10 14 -12 15 -13 2 0 -13 -1 -13 -10 0 -13 20 -13 33 0 25
16 -10 12 12 -5 29 -9 8 -21 13 -28 10 -7 -2 -21 3 -32 12 -11 8 -13 12 -5 8
13 -6 13 -5 0 9 -8 9 -21 17 -29 19 -20 4 -51 35 -51 51 0 9 -2 9 -8 0 -5 -8
-13 -9 -22 -3 -8 5 -12 10 -10 12 37 24 45 25 58 7 7 -11 10 -24 7 -29z m358
15 c-3 -9 -8 -14 -10 -11 -3 3 -2 9 2 15 9 16 15 13 8 -4z m-833 -65 c-9 -6
-9 -12 0 -30 10 -18 9 -25 -7 -39 -23 -22 -53 -33 -53 -20 0 6 -4 8 -9 5 -5
-3 -14 1 -21 9 -10 11 -9 18 4 30 9 9 16 23 16 31 0 8 7 14 15 14 9 0 12 -6 8
-16 -4 -12 -2 -15 8 -12 8 3 14 11 14 19 0 17 16 30 28 22 5 -3 4 -9 -3 -13z
m825 11 c3 -5 2 -12 -3 -15 -5 -3 -9 1 -9 9 0 17 3 19 12 6z m-945 -112 c0
-14 -26 -39 -39 -39 -6 0 -11 -4 -11 -9 0 -10 -34 -23 -67 -25 -13 -1 -23 -1
-23 0 0 1 3 10 6 19 5 12 9 13 14 4 5 -7 15 -9 26 -4 11 5 22 8 26 7 4 -1 5 5
2 13 -4 9 0 15 10 15 9 0 21 9 28 19 12 20 28 19 28 0z m295 -466 c-28 -20
-41 -16 -19 6 10 10 23 16 28 13 5 -3 1 -11 -9 -19z m79 15 c-7 -11 -54 -10
-54 1 0 5 13 9 30 9 16 -1 27 -5 24 -10z m43 -14 c-3 -3 -12 -4 -19 -1 -8 3
-5 6 6 6 11 1 17 -2 13 -5z m-40 -266 c-3 -8 -6 -5 -6 6 -1 11 2 17 5 13 3 -3
4 -12 1 -19z m-227 -9 c0 -5 -10 -9 -21 -9 -18 0 -19 2 -9 15 12 15 30 12 30
-6z m264 12 c3 -5 0 -11 -7 -14 -8 -3 -14 1 -14 9 0 16 13 19 21 5z m-64 -31
c5 0 6 8 3 17 -5 14 -2 12 17 -4 12 -12 27 -20 32 -17 4 3 8 0 8 -5 0 -10 -76
-13 -93 -4 -4 2 -2 14 5 26 11 19 13 20 16 5 2 -10 7 -18 12 -18z m-260 10 c0
-5 -5 -10 -11 -10 -5 0 -7 5 -4 10 3 6 8 10 11 10 2 0 4 -4 4 -10z m61 -22
c-1 -5 -1 -20 -1 -35 -1 -25 -2 -26 -11 -9 -9 15 -13 16 -20 5 -7 -11 -9 -11
-9 3 0 28 12 49 27 46 8 -2 14 -6 14 -10z m-166 -17 c3 -5 2 -12 -3 -15 -5 -3
-9 1 -9 9 0 17 3 19 12 6z m196 -1163 c6 -10 8 -27 6 -36 -4 -13 -5 -12 -6 4
-1 30 -26 47 -58 41 -25 -5 -26 -4 -10 8 23 16 54 8 68 -17z m-118 -28 c-3
-11 -7 -20 -9 -20 -2 0 -4 9 -4 20 0 11 4 20 9 20 5 0 7 -9 4 -20z m42 -40 c3
-5 1 -10 -4 -10 -6 0 -11 5 -11 10 0 6 2 10 4 10 3 0 8 -4 11 -10z m48 -17
c-7 -2 -19 -2 -25 0 -7 3 -2 5 12 5 14 0 19 -2 13 -5z m34 -985 c15 -14 23
-33 23 -54 0 -28 -4 -33 -31 -39 -17 -4 -33 -4 -36 -1 -4 3 3 6 13 6 26 0 44
19 44 46 0 28 -23 46 -52 42 -20 -3 -23 -9 -23 -46 0 -37 -2 -40 -13 -25 -8
11 -11 30 -7 48 9 49 44 59 82 23z m-110 -50 c-3 -7 -5 -2 -5 12 0 14 2 19 5
13 2 -7 2 -19 0 -25z"/>
<path d="M3420 4491 c0 -10 19 -25 25 -20 1 2 -3 10 -11 17 -8 7 -14 8 -14 3z"/>
<path d="M3387 4216 c-3 -8 1 -20 9 -26 16 -14 16 -14 19 18 3 24 -20 31 -28
8z"/>
<path d="M3300 4182 c0 -2 11 -13 25 -24 24 -18 26 -46 3 -32 -7 4 -8 2 -4 -5
4 -6 10 -10 14 -8 4 2 16 7 27 11 19 8 19 8 -2 17 -13 4 -23 17 -23 27 0 11
-7 18 -20 18 -11 0 -20 -2 -20 -4z"/>
<path d="M3655 4160 c3 -5 8 -10 11 -10 2 0 4 5 4 10 0 6 -5 10 -11 10 -5 0
-7 -4 -4 -10z"/>
<path d="M3555 4110 c-3 -5 -1 -10 4 -10 6 0 11 5 11 10 0 6 -2 10 -4 10 -3 0
-8 -4 -11 -10z"/>
<path d="M3533 3326 c4 -9 2 -16 -3 -16 -6 0 -10 -7 -10 -15 0 -8 5 -15 10
-15 6 0 10 5 10 10 0 6 8 10 18 10 13 0 14 2 4 9 -8 4 -13 12 -12 17 1 5 -4
10 -11 13 -8 2 -10 -2 -6 -13z"/>
<path d="M3693 3271 c0 -11 5 -18 9 -15 4 3 5 11 1 19 -7 21 -12 19 -10 -4z"/>
<path d="M3671 3214 c0 -11 3 -14 6 -6 3 7 2 16 -1 19 -3 4 -6 -2 -5 -13z"/>
<path d="M3640 3171 c0 -5 7 -11 14 -14 10 -4 13 -1 9 9 -6 15 -23 19 -23 5z"/>
</g>
</svg>
